<svg width="161" height="52" viewBox="0 0 161 52" fill="none" xmlns="http://www.w3.org/2000/svg">
<rect width="161" height="52" fill="#E5E5E5"/>
<rect width="1600" height="3548" transform="translate(-1209 -36)" fill="white"/>
<rect width="161" height="52" rx="6" fill="#0082F4"/>
<path d="M42.1484 30.1348C41.6667 30.8249 40.9928 31.3424 40.127 31.6875C39.2676 32.026 38.265 32.1953 37.1191 32.1953C35.9603 32.1953 34.9316 31.9251 34.0332 31.3848C33.1348 30.8379 32.4382 30.0632 31.9434 29.0605C31.4551 28.0579 31.2044 26.8958 31.1914 25.5742V24.334C31.1914 22.1921 31.6895 20.5319 32.6855 19.3535C33.6882 18.1751 35.0944 17.5859 36.9043 17.5859C38.3887 17.5859 39.5833 17.9668 40.4883 18.7285C41.3932 19.4837 41.9466 20.5579 42.1484 21.9512H40.2734C39.9219 20.0697 38.8021 19.1289 36.9141 19.1289C35.6576 19.1289 34.7038 19.5716 34.0527 20.457C33.4082 21.3359 33.0827 22.612 33.0762 24.2852V25.4473C33.0762 27.0423 33.4408 28.3118 34.1699 29.2559C34.8991 30.1934 35.8854 30.6621 37.1289 30.6621C37.832 30.6621 38.4473 30.584 38.9746 30.4277C39.502 30.2715 39.9382 30.0078 40.2832 29.6367V26.4434H36.9922V24.9199H42.1484V30.1348ZM49.3848 32.1953C47.9525 32.1953 46.7871 31.7266 45.8887 30.7891C44.9902 29.8451 44.541 28.5853 44.541 27.0098V26.6777C44.541 25.6296 44.7396 24.6953 45.1367 23.875C45.5404 23.0482 46.1003 22.4036 46.8164 21.9414C47.5391 21.4727 48.3203 21.2383 49.1602 21.2383C50.5339 21.2383 51.6016 21.6908 52.3633 22.5957C53.125 23.5007 53.5059 24.7962 53.5059 26.4824V27.2344H46.3477C46.3737 28.276 46.6764 29.1191 47.2559 29.7637C47.8418 30.4017 48.584 30.7207 49.4824 30.7207C50.1204 30.7207 50.6608 30.5905 51.1035 30.3301C51.5462 30.0697 51.9336 29.7246 52.2656 29.2949L53.3691 30.1543C52.4837 31.515 51.1556 32.1953 49.3848 32.1953ZM49.1602 22.7227C48.431 22.7227 47.819 22.9896 47.3242 23.5234C46.8294 24.0508 46.5234 24.793 46.4062 25.75H51.6992V25.6133C51.6471 24.6953 51.3997 23.9857 50.957 23.4844C50.5143 22.9766 49.9154 22.7227 49.1602 22.7227ZM58.0566 18.875V21.4336H60.0293V22.8301H58.0566V29.3828C58.0566 29.806 58.1445 30.125 58.3203 30.3398C58.4961 30.5482 58.7956 30.6523 59.2188 30.6523C59.4271 30.6523 59.7135 30.6133 60.0781 30.5352V32C59.6029 32.1302 59.1406 32.1953 58.6914 32.1953C57.8841 32.1953 57.2754 31.9512 56.8652 31.4629C56.4551 30.9746 56.25 30.2812 56.25 29.3828V22.8301H54.3262V21.4336H56.25V18.875H58.0566ZM71.582 25.6621C69.974 25.1999 68.8021 24.6335 68.0664 23.9629C67.3372 23.2858 66.9727 22.4525 66.9727 21.4629C66.9727 20.3431 67.4186 19.4186 68.3105 18.6895C69.209 17.9538 70.3743 17.5859 71.8066 17.5859C72.7832 17.5859 73.6523 17.7747 74.4141 18.1523C75.1823 18.5299 75.7747 19.0508 76.1914 19.7148C76.6146 20.3789 76.8262 21.1048 76.8262 21.8926H74.9414C74.9414 21.0332 74.668 20.3594 74.1211 19.8711C73.5742 19.3763 72.8027 19.1289 71.8066 19.1289C70.8822 19.1289 70.1595 19.334 69.6387 19.7441C69.1243 20.1478 68.8672 20.7109 68.8672 21.4336C68.8672 22.013 69.1113 22.5046 69.5996 22.9082C70.0944 23.3053 70.931 23.6699 72.1094 24.002C73.2943 24.334 74.2188 24.7018 74.8828 25.1055C75.5534 25.5026 76.0482 25.9681 76.3672 26.502C76.6927 27.0358 76.8555 27.6641 76.8555 28.3867C76.8555 29.5391 76.4062 30.4635 75.5078 31.1602C74.6094 31.8503 73.4082 32.1953 71.9043 32.1953C70.9277 32.1953 70.0163 32.0098 69.1699 31.6387C68.3236 31.2611 67.6693 30.7467 67.207 30.0957C66.7513 29.4447 66.5234 28.7057 66.5234 27.8789H68.4082C68.4082 28.7383 68.724 29.4186 69.3555 29.9199C69.9935 30.4147 70.8431 30.6621 71.9043 30.6621C72.8939 30.6621 73.6523 30.4603 74.1797 30.0566C74.707 29.653 74.9707 29.1029 74.9707 28.4062C74.9707 27.7096 74.7266 27.1725 74.2383 26.7949C73.75 26.4108 72.8646 26.0332 71.582 25.6621ZM81.4355 18.875V21.4336H83.4082V22.8301H81.4355V29.3828C81.4355 29.806 81.5234 30.125 81.6992 30.3398C81.875 30.5482 82.1745 30.6523 82.5977 30.6523C82.806 30.6523 83.0924 30.6133 83.457 30.5352V32C82.9818 32.1302 82.5195 32.1953 82.0703 32.1953C81.263 32.1953 80.6543 31.9512 80.2441 31.4629C79.834 30.9746 79.6289 30.2812 79.6289 29.3828V22.8301H77.7051V21.4336H79.6289V18.875H81.4355ZM92.0508 32C91.9466 31.7917 91.862 31.4206 91.7969 30.8867C90.957 31.7591 89.9544 32.1953 88.7891 32.1953C87.7474 32.1953 86.8913 31.9023 86.2207 31.3164C85.5566 30.724 85.2246 29.9753 85.2246 29.0703C85.2246 27.9701 85.6413 27.1172 86.4746 26.5117C87.3145 25.8997 88.4928 25.5938 90.0098 25.5938H91.7676V24.7637C91.7676 24.1322 91.5788 23.6309 91.2012 23.2598C90.8236 22.8822 90.2669 22.6934 89.5312 22.6934C88.8867 22.6934 88.3464 22.8561 87.9102 23.1816C87.474 23.5072 87.2559 23.901 87.2559 24.3633H85.4395C85.4395 23.8359 85.625 23.3281 85.9961 22.8398C86.3737 22.3451 86.8815 21.9544 87.5195 21.668C88.1641 21.3815 88.8704 21.2383 89.6387 21.2383C90.8561 21.2383 91.8099 21.5443 92.5 22.1562C93.1901 22.7617 93.5482 23.5983 93.5742 24.666V29.5293C93.5742 30.4993 93.6979 31.2708 93.9453 31.8438V32H92.0508ZM89.0527 30.623C89.6191 30.623 90.1562 30.4766 90.6641 30.1836C91.1719 29.8906 91.5397 29.5098 91.7676 29.041V26.873H90.3516C88.138 26.873 87.0312 27.5208 87.0312 28.8164C87.0312 29.3828 87.2201 29.8255 87.5977 30.1445C87.9753 30.4635 88.4603 30.623 89.0527 30.623ZM101.514 23.0547C101.24 23.0091 100.944 22.9863 100.625 22.9863C99.4401 22.9863 98.6361 23.4909 98.2129 24.5V32H96.4062V21.4336H98.1641L98.1934 22.6543C98.7858 21.7103 99.6257 21.2383 100.713 21.2383C101.064 21.2383 101.331 21.2839 101.514 21.375V23.0547ZM106.123 18.875V21.4336H108.096V22.8301H106.123V29.3828C106.123 29.806 106.211 30.125 106.387 30.3398C106.562 30.5482 106.862 30.6523 107.285 30.6523C107.493 30.6523 107.78 30.6133 108.145 30.5352V32C107.669 32.1302 107.207 32.1953 106.758 32.1953C105.951 32.1953 105.342 31.9512 104.932 31.4629C104.521 30.9746 104.316 30.2812 104.316 29.3828V22.8301H102.393V21.4336H104.316V18.875H106.123ZM114.6 32.1953C113.167 32.1953 112.002 31.7266 111.104 30.7891C110.205 29.8451 109.756 28.5853 109.756 27.0098V26.6777C109.756 25.6296 109.954 24.6953 110.352 23.875C110.755 23.0482 111.315 22.4036 112.031 21.9414C112.754 21.4727 113.535 21.2383 114.375 21.2383C115.749 21.2383 116.816 21.6908 117.578 22.5957C118.34 23.5007 118.721 24.7962 118.721 26.4824V27.2344H111.562C111.589 28.276 111.891 29.1191 112.471 29.7637C113.057 30.4017 113.799 30.7207 114.697 30.7207C115.335 30.7207 115.876 30.5905 116.318 30.3301C116.761 30.0697 117.148 29.7246 117.48 29.2949L118.584 30.1543C117.699 31.515 116.37 32.1953 114.6 32.1953ZM114.375 22.7227C113.646 22.7227 113.034 22.9896 112.539 23.5234C112.044 24.0508 111.738 24.793 111.621 25.75H116.914V25.6133C116.862 24.6953 116.615 23.9857 116.172 23.4844C115.729 22.9766 115.13 22.7227 114.375 22.7227ZM120.381 26.6289C120.381 25.0078 120.765 23.7057 121.533 22.7227C122.301 21.7331 123.307 21.2383 124.551 21.2383C125.788 21.2383 126.768 21.6615 127.49 22.5078V17H129.297V32H127.637L127.549 30.8672C126.826 31.7526 125.82 32.1953 124.531 32.1953C123.307 32.1953 122.308 31.694 121.533 30.6914C120.765 29.6888 120.381 28.3802 120.381 26.7656V26.6289ZM122.188 26.834C122.188 28.0319 122.435 28.9694 122.93 29.6465C123.424 30.3236 124.108 30.6621 124.98 30.6621C126.126 30.6621 126.963 30.1478 127.49 29.1191V24.2656C126.95 23.2695 126.12 22.7715 125 22.7715C124.115 22.7715 123.424 23.1133 122.93 23.7969C122.435 24.4805 122.188 25.4928 122.188 26.834Z" fill="white"/>
</svg>
