<svg width="193" height="63" viewBox="0 0 193 63" fill="none" xmlns="http://www.w3.org/2000/svg">
<rect width="193" height="63" fill="#E5E5E5"/>
<rect width="1600" height="3548" transform="translate(-892 -1249)" fill="white"/>
<rect x="-0.000854492" width="193" height="63" rx="10" fill="#0082F4"/>
<path d="M43.7159 33.5176L43.9894 35.3926L44.3898 33.7031L47.2023 23.7812H48.7843L51.5284 33.7031L51.9191 35.4219L52.2218 33.5078L54.4288 23.7812H56.3136L52.8663 38H51.1573L48.2277 27.6387L48.0031 26.5547L47.7784 27.6387L44.7413 38H43.0323L39.5948 23.7812H41.4698L43.7159 33.5176ZM59.9269 28.7129C60.7277 27.7298 61.7693 27.2383 63.0519 27.2383C65.285 27.2383 66.4113 28.498 66.4308 31.0176V38H64.6241V31.0078C64.6176 30.2461 64.4419 29.6829 64.0968 29.3184C63.7583 28.9538 63.2277 28.7715 62.505 28.7715C61.9191 28.7715 61.4047 28.9277 60.962 29.2402C60.5193 29.5527 60.1743 29.9629 59.9269 30.4707V38H58.1202V23H59.9269V28.7129ZM75.6593 38C75.5551 37.7917 75.4705 37.4206 75.4054 36.8867C74.5656 37.7591 73.5629 38.1953 72.3976 38.1953C71.3559 38.1953 70.4998 37.9023 69.8292 37.3164C69.1652 36.724 68.8331 35.9753 68.8331 35.0703C68.8331 33.9701 69.2498 33.1172 70.0831 32.5117C70.923 31.8997 72.1014 31.5938 73.6183 31.5938H75.3761V30.7637C75.3761 30.1322 75.1873 29.6309 74.8097 29.2598C74.4321 28.8822 73.8754 28.6934 73.1398 28.6934C72.4952 28.6934 71.9549 28.8561 71.5187 29.1816C71.0825 29.5072 70.8644 29.901 70.8644 30.3633H69.048C69.048 29.8359 69.2335 29.3281 69.6046 28.8398C69.9822 28.3451 70.49 27.9544 71.1281 27.668C71.7726 27.3815 72.479 27.2383 73.2472 27.2383C74.4646 27.2383 75.4184 27.5443 76.1085 28.1562C76.7986 28.7617 77.1567 29.5983 77.1827 30.666V35.5293C77.1827 36.4993 77.3064 37.2708 77.5538 37.8438V38H75.6593ZM72.6613 36.623C73.2277 36.623 73.7648 36.4766 74.2726 36.1836C74.7804 35.8906 75.1482 35.5098 75.3761 35.041V32.873H73.9601C71.7465 32.873 70.6398 33.5208 70.6398 34.8164C70.6398 35.3828 70.8286 35.8255 71.2062 36.1445C71.5838 36.4635 72.0688 36.623 72.6613 36.623ZM82.4659 24.875V27.4336H84.4386V28.8301H82.4659V35.3828C82.4659 35.806 82.5538 36.125 82.7296 36.3398C82.9054 36.5482 83.2049 36.6523 83.6281 36.6523C83.8364 36.6523 84.1228 36.6133 84.4874 36.5352V38C84.0122 38.1302 83.5499 38.1953 83.1007 38.1953C82.2934 38.1953 81.6847 37.9512 81.2745 37.4629C80.8644 36.9746 80.6593 36.2812 80.6593 35.3828V28.8301H78.7355V27.4336H80.6593V24.875H82.4659ZM100.874 35.5098L102.905 27.4336H104.712L101.636 38H100.171L97.6027 29.9922L95.1027 38H93.6378L90.5714 27.4336H92.3683L94.4484 35.3438L96.9093 27.4336H98.3644L100.874 35.5098ZM110.943 38.1953C109.51 38.1953 108.345 37.7266 107.446 36.7891C106.548 35.8451 106.099 34.5853 106.099 33.0098V32.6777C106.099 31.6296 106.297 30.6953 106.694 29.875C107.098 29.0482 107.658 28.4036 108.374 27.9414C109.097 27.4727 109.878 27.2383 110.718 27.2383C112.092 27.2383 113.159 27.6908 113.921 28.5957C114.683 29.5007 115.064 30.7962 115.064 32.4824V33.2344H107.905C107.931 34.276 108.234 35.1191 108.814 35.7637C109.4 36.4017 110.142 36.7207 111.04 36.7207C111.678 36.7207 112.219 36.5905 112.661 36.3301C113.104 36.0697 113.491 35.7246 113.823 35.2949L114.927 36.1543C114.041 37.515 112.713 38.1953 110.943 38.1953ZM110.718 28.7227C109.989 28.7227 109.377 28.9896 108.882 29.5234C108.387 30.0508 108.081 30.793 107.964 31.75H113.257V31.6133C113.205 30.6953 112.957 29.9857 112.515 29.4844C112.072 28.9766 111.473 28.7227 110.718 28.7227ZM121.685 32.6289C121.685 31.0078 122.069 29.7057 122.837 28.7227C123.605 27.7331 124.611 27.2383 125.855 27.2383C127.092 27.2383 128.071 27.6615 128.794 28.5078V23H130.601V38H128.941L128.853 36.8672C128.13 37.7526 127.124 38.1953 125.835 38.1953C124.611 38.1953 123.612 37.694 122.837 36.6914C122.069 35.6888 121.685 34.3802 121.685 32.7656V32.6289ZM123.491 32.834C123.491 34.0319 123.739 34.9694 124.234 35.6465C124.728 36.3236 125.412 36.6621 126.284 36.6621C127.43 36.6621 128.267 36.1478 128.794 35.1191V30.2656C128.254 29.2695 127.424 28.7715 126.304 28.7715C125.418 28.7715 124.728 29.1133 124.234 29.7969C123.739 30.4805 123.491 31.4928 123.491 32.834ZM132.935 32.6191C132.935 31.584 133.137 30.653 133.54 29.8262C133.95 28.9993 134.517 28.3613 135.239 27.9121C135.969 27.4629 136.799 27.2383 137.73 27.2383C139.168 27.2383 140.331 27.7363 141.216 28.7324C142.108 29.7285 142.554 31.0534 142.554 32.707V32.834C142.554 33.8626 142.355 34.7871 141.958 35.6074C141.568 36.4212 141.004 37.056 140.269 37.5117C139.54 37.9674 138.7 38.1953 137.749 38.1953C136.317 38.1953 135.155 37.6973 134.263 36.7012C133.377 35.7051 132.935 34.3867 132.935 32.7461V32.6191ZM134.751 32.834C134.751 34.0059 135.021 34.9466 135.562 35.6562C136.109 36.3659 136.838 36.7207 137.749 36.7207C138.667 36.7207 139.396 36.3626 139.937 35.6465C140.477 34.9238 140.747 33.9147 140.747 32.6191C140.747 31.4603 140.47 30.5228 139.917 29.8066C139.37 29.084 138.641 28.7227 137.73 28.7227C136.838 28.7227 136.118 29.0775 135.571 29.7871C135.025 30.4967 134.751 31.5124 134.751 32.834ZM146.939 33.9961C146.952 33.2214 147.04 32.6094 147.202 32.1602C147.365 31.7109 147.697 31.2129 148.198 30.666L149.478 29.3477C150.025 28.7292 150.298 28.0651 150.298 27.3555C150.298 26.6719 150.119 26.138 149.761 25.7539C149.403 25.3633 148.882 25.168 148.198 25.168C147.534 25.168 147 25.3438 146.597 25.6953C146.193 26.0469 145.991 26.5189 145.991 27.1113H144.185C144.198 26.0566 144.572 25.207 145.308 24.5625C146.05 23.9115 147.013 23.5859 148.198 23.5859C149.429 23.5859 150.386 23.918 151.069 24.582C151.76 25.2396 152.105 26.1445 152.105 27.2969C152.105 28.4362 151.577 29.5592 150.523 30.666L149.458 31.7207C148.983 32.248 148.745 33.0065 148.745 33.9961H146.939ZM146.86 37.0918C146.86 36.7988 146.948 36.5547 147.124 36.3594C147.306 36.1576 147.573 36.0566 147.925 36.0566C148.276 36.0566 148.543 36.1576 148.726 36.3594C148.908 36.5547 148.999 36.7988 148.999 37.0918C148.999 37.3848 148.908 37.6289 148.726 37.8242C148.543 38.013 148.276 38.1074 147.925 38.1074C147.573 38.1074 147.306 38.013 147.124 37.8242C146.948 37.6289 146.86 37.3848 146.86 37.0918Z" fill="white"/>
</svg>
